<svg xmlns="http://www.w3.org/2000/svg" xmlns:xlink="http://www.w3.org/1999/xlink" width="20" height="20" viewBox="0 0 20 20" version="1.1">
  <g id="Page-1" stroke="none" stroke-width="1" fill="none" fill-rule="evenodd">
    <g id="Dashboard-page" transform="translate(-25.000000, -20.000000)" fill="#FFFFFF" fill-rule="nonzero">
      <g id="header">
        <path d="M44.09 29.09C43.59 29.09 43.18 29.5 43.18 30 43.18 34.21 40 37.68 35.91 38.13L35.91 27.15C37.48 26.75 38.64 25.33 38.64 23.64 38.64 21.63 37.01 20 35 20 32.99 20 31.36 21.63 31.36 23.64 31.36 25.33 32.52 26.75 34.09 27.15L34.09 38.13C30 37.68 26.82 34.21 26.82 30 26.82 29.5 26.41 29.09 25.91 29.09 25.41 29.09 25 29.5 25 30 25 35.52 29.48 40 35 40 40.52 40 45 35.52 45 30 45 29.5 44.59 29.09 44.09 29.09ZM33.18 23.64C33.18 22.63 34 21.82 35 21.82 36 21.82 36.82 22.63 36.82 23.64 36.82 24.64 36 25.45 35 25.45 34 25.45 33.18 24.64 33.18 23.64Z" id="logo"/>
      </g>
    </g>
  </g>
</svg>
